HIERARCHY
ROOT Hips
{
 OFFSET 0.000000 0.000000 0.000000
 CHANNELS 6 Xposition Yposition Zposition Yrotation Xrotation Zrotation
 JOINT Chest
 {
  OFFSET 0.000000 9.585900 0.002600
  CHANNELS 3 Yrotation Xrotation Zrotation
  JOINT Chest2
  {
   OFFSET 0.000000 9.601200 -0.005300
   CHANNELS 3 Yrotation Xrotation Zrotation
   JOINT Chest3
   {
    OFFSET 0.000000 9.561800 0.000000
    CHANNELS 3 Yrotation Xrotation Zrotation
    JOINT Chest4
    {
     OFFSET 0.000000 9.552100 0.000000
     CHANNELS 3 Yrotation Xrotation Zrotation
     JOINT Neck
     {
      OFFSET 0.000000 14.453000 0.000000
      CHANNELS 3 Yrotation Xrotation Zrotation
      JOINT Head
      {
       OFFSET 0.000000 8.936500 -0.011300
       CHANNELS 3 Yrotation Xrotation Zrotation
       End Site
       {
        OFFSET 0.000000 17.073600 -0.006000
       }
      }
     }
     JOINT RightCollar
     {
      OFFSET -2.921100 9.558500 0.000000
      CHANNELS 3 Yrotation Xrotation Zrotation
      JOINT RightShoulder
      {
       OFFSET -13.519700 0.000000 0.000000
       CHANNELS 3 Yrotation Xrotation Zrotation
       JOINT RightElbow
       {
        OFFSET 0.000000 -29.696600 0.000000
        CHANNELS 3 Yrotation Xrotation Zrotation
        JOINT RightWrist
        {
         OFFSET 0.000000 -24.004700 0.000000
         CHANNELS 3 Yrotation Xrotation Zrotation
         End Site
         {
          OFFSET 0.000000 -17.728500 0.000000
         }
        }
       }
      }
     }
     JOINT LeftCollar
     {
      OFFSET 2.921100 9.558500 0.000000
      CHANNELS 3 Yrotation Xrotation Zrotation
      JOINT LeftShoulder
      {
       OFFSET 13.519700 0.000000 0.000000
       CHANNELS 3 Yrotation Xrotation Zrotation
       JOINT LeftElbow
       {
        OFFSET 0.000000 -29.696600 0.000000
        CHANNELS 3 Yrotation Xrotation Zrotation
        JOINT LeftWrist
        {
         OFFSET 0.000000 -24.004700 0.000000
         CHANNELS 3 Yrotation Xrotation Zrotation
         End Site
         {
          OFFSET 0.000000 -17.728500 0.000000
         }
        }
       }
      }
     }
    }
   }
  }
 }
 JOINT RightHip
 {
  OFFSET -7.771700 -0.012900 -0.001300
  CHANNELS 3 Yrotation Xrotation Zrotation
  JOINT RightKnee
  {
   OFFSET 0.000000 -40.869800 0.001200
   CHANNELS 3 Yrotation Xrotation Zrotation
   JOINT RightAnkle
   {
    OFFSET 0.000000 -39.717900 0.002100
    CHANNELS 3 Yrotation Xrotation Zrotation
    JOINT RightToe
    {
     OFFSET 0.000000 -4.965400 11.033500
     CHANNELS 3 Yrotation Xrotation Zrotation
     End Site
     {
      OFFSET 0.000000 -1.423100 5.872300
     }
    }
   }
  }
 }
 JOINT LeftHip
 {
  OFFSET 7.771700 -0.012900 -0.001300
  CHANNELS 3 Yrotation Xrotation Zrotation
  JOINT LeftKnee
  {
   OFFSET 0.000000 -40.869800 0.001200
   CHANNELS 3 Yrotation Xrotation Zrotation
   JOINT LeftAnkle
   {
    OFFSET 0.000000 -39.717900 0.002100
    CHANNELS 3 Yrotation Xrotation Zrotation
    JOINT LeftToe
    {
     OFFSET 0.000000 -4.965400 11.033500
     CHANNELS 3 Yrotation Xrotation Zrotation
     End Site
     {
      OFFSET 0.000000 -1.423100 5.872300
     }
    }
   }
  }
 }
}
MOTION
Frames: 16
Frame Time: 0.008333
0.000000 85.388000 0.000000 0.000000 -5.767877 0.000000 0.000000 11.653817 0.000000 0.000000 -5.885947 0.000000 0.000000 -0.000000 0.000000 0.000000 -0.000000 0.000000 0.000000 12.528835 0.000000 0.000000 0.711642 0.000000 0.000000 -0.000000 0.000000 0.000000 0.000000 -90.000000 0.000000 -2.309062 0.000000 0.000000 2.309062 0.000000 0.000000 -0.000000 0.000000 0.000000 -0.000000 90.000000 0.000000 -2.309062 0.000000 0.000000 2.309062 0.000000 0.000000 8.520406 0.000000 0.000000 1.905762 0.000000 -0.000000 -4.658285 0.000000 0.000000 -0.000000 0.000000 0.000000 8.520406 0.000000 0.000000 1.905762 0.000000 -0.000000 -4.658285 0.000000 0.000000 -0.000000 0.000000
-11.073494 55.383004 22.515630 -176.060129 -27.378762 -12.005965 -1.005120 9.561632 6.151127 -0.851405 5.492178 1.925129 -1.029309 6.855045 2.387498 -0.840977 5.469208 1.910399 8.480032 20.560918 -0.271995 9.367820 -3.464699 -2.261161 -3.717498 1.913355 -4.396979 -31.002079 -11.126528 7.303758 -63.478366 -66.721359 77.724059 6.088847 -2.693317 -24.481743 -7.790388 1.585209 -2.890452 19.204853 -5.542382 2.428163 110.386071 -73.482286 -114.210938 26.927395 -16.506153 10.168130 -22.184152 -37.395055 8.656339 -29.258833 84.492137 -32.410122 1.764286 -18.341409 1.298701 -1.076691 2.092622 -0.479784 -20.116409 -49.968292 17.564480 166.174153 78.574042 161.198859 -1.454636 -16.318403 1.655719 -1.547996 -2.956676 -0.693599
-11.072395 55.378230 22.513224 -176.057107 -27.397103 -12.013598 -1.000422 9.565344 6.148308 -0.842443 5.455622 1.903655 -1.032285 6.892026 2.409636 -0.834378 5.436092 1.890753 8.368623 20.578699 -0.204335 9.222844 -3.457046 -2.160177 -3.800441 1.953934 -4.431864 -30.996469 -10.945716 7.265388 -63.061514 -67.271868 77.402388 6.240860 -2.550547 -24.521979 -7.762099 1.609037 -2.887591 19.160841 -5.355085 2.469778 112.116725 -74.355395 -115.774836 26.428119 -16.565549 10.836146 -22.179104 -37.374300 8.660142 -29.441603 84.483094 -32.595306 1.769110 -18.360323 1.308637 -1.073632 2.108680 -0.483901 -20.096425 -49.958626 17.553925 166.168109 78.559667 161.202128 -1.456878 -16.324725 1.663134 -1.554245 -2.958599 -0.695438
-11.070304 55.372265 22.512430 -176.059536 -27.407322 -12.021894 -0.994237 9.530745 6.132575 -0.838053 5.467435 1.909549 -1.022247 6.851585 2.384371 -0.836163 5.454152 1.902283 8.244412 20.624430 -0.133250 9.063076 -3.418157 -2.052418 -3.879625 2.000564 -4.463477 -30.955968 -10.736092 7.221271 -62.579135 -67.781289 77.026784 6.324530 -2.482879 -24.525914 -7.746777 1.648040 -2.879314 19.108421 -5.151494 2.498024 114.120386 -75.326509 -117.589070 25.936152 -16.595112 11.435559 -22.173719 -37.361614 8.674386 -29.562823 84.475595 -32.716871 1.756279 -18.377150 1.321733 -1.066954 2.126103 -0.489871 -20.086509 -49.954205 17.560369 166.189508 78.547950 161.226520 -1.457276 -16.338919 1.672009 -1.557293 -2.952190 -0.695033
-11.068796 55.365743 22.512422 -176.055232 -27.413380 -12.026697 -0.991491 9.520316 6.126452 -0.832409 5.457092 1.901506 -1.015808 6.830003 2.369709 -0.839320 5.464075 1.910637 8.107269 20.692036 -0.068943 8.886672 -3.352620 -1.939495 -3.924111 2.034778 -4.470602 -30.900703 -10.513784 7.143789 -62.110008 -68.207978 76.674034 6.392202 -2.485531 -24.546033 -7.750287 1.682956 -2.864796 19.058502 -4.933311 2.502192 116.502458 -76.385430 -119.760366 25.447428 -16.617507 11.955571 -22.175135 -37.356024 8.679157 -29.622149 84.475622 -32.775194 1.748737 -18.389346 1.329781 -1.080498 2.137177 -0.496097 -20.086767 -49.952187 17.566208 166.228163 78.540437 161.263454 -1.464573 -16.354911 1.676356 -1.552128 -2.940313 -0.691307
-11.065972 55.359541 22.513211 -176.054723 -27.418567 -12.034633 -0.987523 9.520041 6.131267 -0.828320 5.451727 1.896719 -1.013358 6.827838 2.366263 -0.824978 5.454879 1.892774 7.951281 20.777678 0.004425 8.691502 -3.269806 -1.822016 -4.020278 2.039902 -4.511354 -30.763996 -10.232123 7.085308 -61.679831 -68.590158 76.373410 6.502513 -2.507818 -24.604388 -7.735272 1.691930 -2.870266 18.955522 -4.689753 2.530847 119.401873 -77.487231 -122.430082 24.951782 -16.679702 12.402745 -22.170981 -37.348631 8.693442 -29.693285 84.470169 -32.846175 1.741300 -18.401536 1.343396 -1.093442 2.150588 -0.503072 -20.096704 -49.948448 17.584661 166.274818 78.533258 161.304676 -1.467188 -16.371869 1.680669 -1.551437 -2.927589 -0.689645
-11.063372 55.354198 22.513877 -176.059649 -27.430206 -12.036209 -0.972416 9.515275 6.127880 -0.830446 5.459112 1.898248 -1.010736 6.827855 2.362918 -0.800370 5.444044 1.866590 7.776590 20.874746 0.087069 8.477677 -3.177401 -1.699852 -4.115894 2.041483 -4.535937 -30.595979 -9.921269 7.009411 -61.240465 -68.986325 76.091468 6.644632 -2.538285 -24.719898 -7.712012 1.731843 -2.880032 18.808703 -4.458259 2.558698 123.041699 -78.585090 -125.817697 24.431601 -16.792082 12.798470 -22.156754 -37.338660 8.705341 -29.726149 84.466391 -32.884379 1.730099 -18.408342 1.360935 -1.103598 2.159959 -0.509298 -20.093697 -49.940151 17.591865 166.303528 78.525952 161.326835 -1.463875 -16.385214 1.687561 -1.559096 -2.919135 -0.691720
-11.062489 55.349670 22.514426 -176.063289 -27.447498 -12.026115 -0.954152 9.487794 6.104996 -0.829421 5.482285 1.898814 -1.001409 6.828820 2.355859 -0.808257 5.454311 1.877467 7.597995 20.968737 0.141431 8.249804 -3.084244 -1.576873 -4.169835 2.042931 -4.567147 -30.410697 -9.595711 6.912354 -60.736691 -69.427431 75.780634 6.794519 -2.584488 -24.937176 -7.707300 1.750865 -2.880696 18.681838 -4.187891 2.554192 127.674741 -79.662073 -130.178204 23.896911 -16.951625 13.131159 -22.135631 -37.327519 8.695519 -29.786953 84.462424 -32.944676 1.727843 -18.419896 1.363856 -1.095730 2.173250 -0.507083 -20.073889 -49.926054 17.581241 166.432062 78.530431 161.437663 -1.439966 -16.400270 1.704985 -1.572374 -2.907855 -0.696875
-11.062043 55.345982 22.515413 -176.060523 -27.466476 -12.015048 -0.951530 9.484521 6.087508 -0.807828 5.467171 1.879746 -1.002492 6.850269 2.360614 -0.796314 5.457256 1.864761 7.399749 21.064365 0.218157 8.014796 -2.993231 -1.457355 -4.223838 2.059793 -4.563914 -30.204171 -9.254264 6.795054 -60.143595 -69.912096 75.414376 6.936008 -2.651248 -25.287628 -7.695134 1.795107 -2.877036 18.514022 -3.922319 2.551480 133.594310 -80.708452 -135.816212 23.362797 -17.176710 13.394396 -22.118722 -37.315418 8.677016 -29.834038 84.460374 -32.989112 1.730083 -18.429274 1.368343 -1.055810 2.184829 -0.506128 -20.059384 -49.908305 17.568625 166.536931 78.536960 161.523788 -1.433522 -16.413955 1.717033 -1.572802 -2.895110 -0.696139
-11.061085 55.344360 22.514921 -176.061590 -27.502868 -12.005809 -0.943595 9.498169 6.073627 -0.805092 5.479997 1.878745 -0.987114 6.846067 2.345409 -0.784925 5.458703 1.852879 7.198831 21.162615 0.291180 7.777337 -2.898142 -1.341132 -4.276143 2.119298 -4.576916 -29.975670 -8.916696 6.701011 -59.439439 -70.422511 74.968142 7.064281 -2.736943 -25.760971 -7.678374 1.837766 -2.873751 18.335500 -3.645755 2.530235 141.262295 -81.687892 -143.196991 22.848119 -17.480210 13.603001 -22.091280 -37.285547 8.649087 -29.833806 84.459375 -32.996259 1.799226 -18.436940 1.352471 -1.052488 2.193403 -0.498369 -20.035024 -49.874924 17.551458 166.629115 78.540157 161.596771 -1.421138 -16.414687 1.731300 -1.581380 -2.897661 -0.698743
-11.058378 55.342383 22.517803 -176.063265 -27.522934 -12.006186 -0.938581 9.495357 6.068741 -0.801159 5.493907 1.879251 -0.974000 6.842690 2.332275 -0.780062 5.458573 1.846254 6.999655 21.267282 0.352949 7.539635 -2.794222 -1.227235 -4.329065 2.228859 -4.614846 -29.726738 -8.593120 6.644057 -58.611403 -70.952233 74.424770 7.188480 -2.817031 -26.314941 -7.641063 1.882373 -2.881261 18.142628 -3.363980 2.489654 151.121003 -82.518788 -152.765769 22.374733 -17.853035 13.754787 -22.073217 -37.266672 8.643226 -29.837497 84.453215 -33.006029 1.861623 -18.443612 1.337235 -1.088191 2.204410 -0.490419 -20.023113 -49.856672 17.553782 166.708180 78.543578 161.664257 -1.413590 -16.420091 1.743491 -1.590763 -2.892749 -0.700483
-11.057356 55.340693 22.521476 -176.063915 -27.543612 -11.997873 -0.937173 9.492817 6.053321 -0.793250 5.496830 1.873873 -0.952240 6.829254 2.304487 -0.787333 5.476597 1.861239 6.799617 21.375936 0.412181 7.302417 -2.685064 -1.116099 -4.377378 2.373989 -4.645273 -29.464972 -8.284062 6.606197 -57.661050 -71.494202 73.782837 7.317919 -2.859087 -26.884710 -7.545864 1.974111 -2.910853 17.896525 -3.118924 2.438420 162.940676 -83.091851 -164.316637 21.917966 -18.263795 13.842589 -22.047771 -37.256822 8.658489 -29.823230 84.454387 -33.010004 1.772956 -18.426432 1.386550 -1.074625 2.193430 -0.501960 -19.987225 -49.842480 17.543072 166.833962 78.552837 161.783639 -1.433918 -16.421709 1.754642 -1.572725 -2.888946 -0.688967
-11.056450 55.339881 22.525435 -176.063372 -27.568688 -11.991405 -0.936255 9.493347 6.038336 -0.785986 5.501461 1.868837 -0.948735 6.834305 2.300593 -0.786760 5.482783 1.863986 6.598906 21.475024 0.450355 7.064826 -2.577170 -1.006845 -4.414402 2.546067 -4.691538 -29.190288 -7.991388 6.607244 -56.605496 -72.027693 73.044999 7.455579 -2.845375 -27.398071 -7.471996 2.048023 -2.937112 17.690095 -2.850668 2.351179 175.750694 -83.335043 -176.901032 21.453495 -18.665381 13.867398 -22.030327 -37.240209 8.650541 -29.791654 84.454747 -32.985539 1.763203 -18.414455 1.399417 -1.089749 2.188105 -0.505854 -19.951553 -49.823094 17.524496 166.926693 78.561124 161.873339 -1.441936 -16.425989 1.764499 -1.562832 -2.883781 -0.684347
-11.054588 55.339665 22.530742 -176.062137 -27.591040 -11.993240 -0.933576 9.487511 6.031425 -0.778536 5.487770 1.850478 -0.952594 6.870826 2.320910 -0.780496 5.477996 1.854583 6.391243 21.568273 0.486977 6.824235 -2.476453 -0.897533 -4.447786 2.725078 -4.729845 -28.904033 -7.693513 6.631203 -55.487959 -72.533258 72.235051 7.596234 -2.778007 -27.795534 -7.413327 2.120818 -2.954811 17.509621 -2.567408 2.237819 -171.598104 -83.239300 170.626938 21.026893 -19.023857 13.822421 -22.003713 -37.219706 8.651341 -29.879147 84.438191 -33.065010 1.724852 -18.406280 1.417949 -1.092510 2.191436 -0.506469 -19.924977 -49.804207 17.522915 166.998755 78.568718 161.938498 -1.450413 -16.429303 1.781391 -1.560257 -2.878380 -0.683040
-11.053921 55.342154 22.532945 -176.062022 -27.641202 -11.991755 -0.924791 9.505540 6.020168 -0.778376 5.512355 1.854956 -0.944402 6.854111 2.299494 -0.768294 5.465549 1.813298 6.183190 21.672075 0.583315 6.577297 -2.389858 -0.787278 -4.488510 2.915491 -4.705109 -28.602930 -7.372406 6.665168 -54.338360 -73.001971 71.374861 7.724605 -2.676716 -28.036494 -7.358946 2.231057 -2.923722 17.339938 -2.276288 2.114105 -160.294225 -82.865852 159.452182 20.677027 -19.336992 13.691985 -21.950476 -37.170219 8.640172 -29.934030 84.416245 -33.126045 1.696982 -18.400969 1.444198 -1.090042 2.198547 -0.501705 -19.884414 -49.757682 17.502409 167.003019 78.570840 161.928641 -1.448048 -16.421066 1.804213 -1.575567 -2.888932 -0.690666
-11.053550 55.344944 22.537194 -176.059703 -27.682743 -11.992003 -0.919735 9.530733 6.013541 -0.771759 5.500980 1.845012 -0.940428 6.860072 2.289910 -0.776347 5.476756 1.804534 5.966827 21.741970 0.639216 6.324497 -2.324689 -0.676792 -4.508494 3.060324 -4.702141 -28.285040 -7.032933 6.713933 -53.140161 -73.426993 70.450093 7.825034 -2.574935 -28.118870 -7.320078 2.280108 -2.907702 17.231932 -1.937913 1.980599 -151.064878 -82.310010 150.288646 20.398249 -19.601185 13.482254 -21.925014 -37.129535 8.629234 -29.919819 84.400345 -33.121811 1.702695 -18.383075 1.460099 -1.108078 2.193985 -0.506262 -19.852736 -49.717802 17.484574 167.010260 78.576863 161.930362 -1.454533 -16.418161 1.808931 -1.573377 -2.891207 -0.686400
